<?xml version="1.0" encoding="utf-8"?>
<!-- Generator: Adobe Illustrator 16.2.0, SVG Export Plug-In . SVG Version: 6.00 Build 0)  -->
<!DOCTYPE svg PUBLIC "-//W3C//DTD SVG 1.1//EN" "http://www.w3.org/Graphics/SVG/1.1/DTD/svg11.dtd">
<svg version="1.1" id="Layer_1" xmlns="http://www.w3.org/2000/svg" xmlns:xlink="http://www.w3.org/1999/xlink" x="0px" y="0px"
	 width="354px" height="247px" viewBox="0 0 354 247" enable-background="new 0 0 354 247" xml:space="preserve">
<path fill="#D5D5D5" d="M278.946,143.829l-38.427-41.791V24.686c0-9.311-7.548-16.859-16.859-16.859H23.859
	C14.548,7.826,7,15.375,7,24.686v158.033c0,9.313,7.548,16.859,16.859,16.859H223.66c9.312,0,16.859-7.547,16.859-16.859v-38.89
	H278.946z"/>
<g>
	<path fill="#FF560D" d="M56.456,65.591h20.918v20.438H55.078c-14.145,0-22.596-9.23-22.596-21.457
		c0-11.987,10.429-21.338,22.476-21.338c12.287,0,22.417,8.512,22.417,21.277H60.892c-0.24-2.996-2.817-5.274-5.934-5.274
		c-3.296,0-5.934,2.697-5.934,5.994c0,3.296,2.637,5.934,5.934,5.934h5.934v-4.556h-4.436V65.591z"/>
	<path fill="#FF560D" d="M113.091,44.134l16.722,41.896h-16.722l-9.41-26.072l-4.495,12.107h7.731l5.035,13.965
		c-11.688,0-22.356,0-34.104,0l16.423-41.896H113.091z"/>
	<path fill="#FF560D" d="M149.046,44.074c6.114,0,12.167,1.318,15.404,5.334c3.296,4.075,3.537,10.969-0.779,14.505
		c5.874,2.637,7.012,9.709,4.315,15.044c-2.937,5.813-9.95,7.072-17.442,7.072h-20.199c0-13.965,0-27.99,0-41.955H149.046z
		 M150.305,59.178c3.776,0,3.776-4.495,0-4.495h-4.375c0,6.833,0,13.126,0,19.898h4.915c3.956,0,3.896-4.734-0.06-4.734h-3.836
		c0-3.417,0-7.313,0-10.669H150.305z"/>
	<path fill="#FF560D" d="M186.501,57.979v1.079h19.959v11.987h-19.959v1.079h19.959v13.905h-35.543c0-13.965,0-27.99,0-41.955
		h35.543v13.904H186.501z"/>
</g>
<g>
	<path fill="#738C99" d="M36.349,169.57c0.595,0,1.107-0.1,1.537-0.3c0.429-0.2,0.878-0.52,1.346-0.959l1.113,1.142
		c-1.083,1.2-2.398,1.801-3.945,1.801c-1.547,0-2.83-0.498-3.85-1.493s-1.529-2.254-1.529-3.776s0.52-2.79,1.559-3.806
		c1.04-1.015,2.352-1.521,3.938-1.521c1.585,0,2.91,0.585,3.974,1.756l-1.098,1.2c-0.488-0.468-0.949-0.795-1.383-0.98
		s-0.944-0.278-1.529-0.278c-1.035,0-1.903,0.335-2.605,1.003s-1.054,1.522-1.054,2.562s0.349,1.907,1.046,2.605
		C34.565,169.222,35.392,169.57,36.349,169.57z"/>
	<path fill="#738C99" d="M42.452,171.137v-10.231h1.727v4.436h5.079v-4.436h1.727v10.231h-1.727v-4.187h-5.079v4.187H42.452z"/>
	<path fill="#738C99" d="M55.273,168.81l-1.024,2.327h-1.844l4.508-10.231h1.844l4.508,10.231h-1.844l-1.024-2.327H55.273z
		 M59.694,167.214l-1.859-4.215l-1.859,4.215H59.694z"/>
	<path fill="#738C99" d="M72.852,164.229c0,1.688-0.737,2.751-2.21,3.19l2.679,3.718h-2.196l-2.444-3.439h-2.269v3.439h-1.727
		v-10.231h3.805c1.562,0,2.679,0.264,3.352,0.791C72.516,162.223,72.852,163.067,72.852,164.229z M70.554,165.677
		c0.352-0.302,0.527-0.787,0.527-1.456c0-0.668-0.181-1.127-0.542-1.376s-1.005-0.373-1.932-0.373h-2.195v3.659h2.151
		C69.539,166.131,70.203,165.979,70.554,165.677z"/>
	<path fill="#738C99" d="M76.79,168.81l-1.024,2.327h-1.844l4.508-10.231h1.844l4.508,10.231h-1.844l-1.024-2.327H76.79z
		 M81.21,167.214l-1.859-4.215l-1.859,4.215H81.21z"/>
	<path fill="#738C99" d="M90.87,169.57c0.595,0,1.107-0.1,1.537-0.3c0.429-0.2,0.878-0.52,1.346-0.959l1.113,1.142
		c-1.083,1.2-2.398,1.801-3.945,1.801c-1.547,0-2.83-0.498-3.85-1.493s-1.529-2.254-1.529-3.776s0.52-2.79,1.559-3.806
		c1.04-1.015,2.352-1.521,3.938-1.521c1.585,0,2.91,0.585,3.974,1.756l-1.098,1.2c-0.488-0.468-0.949-0.795-1.383-0.98
		s-0.944-0.278-1.529-0.278c-1.035,0-1.903,0.335-2.605,1.003s-1.054,1.522-1.054,2.562s0.349,1.907,1.046,2.605
		C89.087,169.222,89.914,169.57,90.87,169.57z"/>
	<path fill="#738C99" d="M100.837,162.486v8.65H99.11v-8.65h-3.103v-1.581h7.933v1.581H100.837z"/>
	<path fill="#738C99" d="M113,160.905v1.625h-5.459v2.708h4.903v1.537h-4.903v2.736h5.635v1.625h-7.362v-10.231H113z"/>
	<path fill="#738C99" d="M123.553,164.229c0,1.688-0.737,2.751-2.21,3.19l2.679,3.718h-2.196l-2.444-3.439h-2.269v3.439h-1.727
		v-10.231h3.805c1.562,0,2.679,0.264,3.352,0.791C123.217,162.223,123.553,163.067,123.553,164.229z M121.255,165.677
		c0.352-0.302,0.527-0.787,0.527-1.456c0-0.668-0.181-1.127-0.542-1.376s-1.005-0.373-1.932-0.373h-2.195v3.659h2.151
		C120.24,166.131,120.904,165.979,121.255,165.677z"/>
	<path fill="#738C99" d="M137.795,162.245c0.985,0.893,1.479,2.135,1.479,3.725c0,1.591-0.479,2.85-1.435,3.776
		c-0.957,0.928-2.42,1.391-4.391,1.391h-3.396v-10.231h3.513C135.399,160.905,136.809,161.352,137.795,162.245z M137.531,166.014
		c0-2.342-1.342-3.513-4.025-3.513h-1.727v7.011h1.917c1.239,0,2.188-0.295,2.847-0.885
		C137.202,168.036,137.531,167.165,137.531,166.014z"/>
	<path fill="#738C99" d="M148.685,160.905v1.625h-5.459v2.708h4.903v1.537h-4.903v2.736h5.635v1.625h-7.362v-10.231H148.685z"/>
	<path fill="#738C99" d="M154.166,162.252c-0.503,0-0.915,0.103-1.237,0.308c-0.322,0.205-0.483,0.515-0.483,0.93
		s0.161,0.731,0.483,0.951c0.322,0.22,1.007,0.456,2.056,0.71s1.839,0.609,2.371,1.068s0.798,1.135,0.798,2.027
		s-0.336,1.617-1.01,2.174c-0.673,0.556-1.557,0.834-2.649,0.834c-1.601,0-3.02-0.551-4.259-1.654l1.083-1.303
		c1.034,0.898,2.108,1.347,3.22,1.347c0.556,0,0.998-0.119,1.325-0.358c0.327-0.239,0.49-0.557,0.49-0.951
		c0-0.396-0.154-0.703-0.461-0.922c-0.308-0.22-0.837-0.42-1.588-0.601s-1.322-0.347-1.712-0.498
		c-0.39-0.15-0.737-0.349-1.039-0.593c-0.605-0.458-0.908-1.161-0.908-2.107s0.344-1.676,1.032-2.188
		c0.688-0.512,1.539-0.768,2.554-0.768c0.653,0,1.302,0.107,1.946,0.321c0.644,0.215,1.2,0.518,1.669,0.908l-0.922,1.302
		c-0.303-0.272-0.712-0.497-1.229-0.673S154.668,162.252,154.166,162.252z"/>
	<path fill="#738C99" d="M160.292,160.905h1.727v10.231h-1.727V160.905z"/>
	<path fill="#738C99" d="M171.942,166.16h1.727v3.498c-0.966,1.063-2.347,1.596-4.142,1.596c-1.513,0-2.779-0.498-3.798-1.493
		s-1.529-2.254-1.529-3.776s0.52-2.79,1.559-3.806c1.04-1.015,2.295-1.521,3.769-1.521c1.473,0,2.698,0.429,3.674,1.288
		l-0.922,1.316c-0.4-0.341-0.803-0.578-1.208-0.709c-0.405-0.132-0.876-0.198-1.413-0.198c-1.035,0-1.903,0.335-2.605,1.003
		S166,164.904,166,165.992s0.341,1.961,1.024,2.62c0.683,0.658,1.51,0.987,2.481,0.987c0.971,0,1.783-0.209,2.437-0.629V166.16z"/>
	<path fill="#738C99" d="M183.607,160.905h1.727v10.231h-1.873l-5.796-7.465v7.465h-1.727v-10.231h1.727l5.942,7.641V160.905z"/>
	<path fill="#738C99" d="M195.36,160.905v1.625h-5.46v2.708h4.903v1.537H189.9v2.736h5.636v1.625h-7.362v-10.231H195.36z"/>
	<path fill="#738C99" d="M205.913,164.229c0,1.688-0.736,2.751-2.21,3.19l2.679,3.718h-2.195l-2.444-3.439h-2.27v3.439h-1.727
		v-10.231h3.806c1.561,0,2.679,0.264,3.352,0.791C205.576,162.223,205.913,163.067,205.913,164.229z M203.615,165.677
		c0.352-0.302,0.527-0.787,0.527-1.456c0-0.668-0.181-1.127-0.542-1.376s-1.005-0.373-1.932-0.373h-2.196v3.659h2.152
		C202.601,166.131,203.264,165.979,203.615,165.677z"/>
</g>
<g>
	<path fill="#FF560D" d="M79.558,143.148H32.204v-3.76l16.989-28.123h-16.7V92.541h47.354v2.458l-16.483,28.485h-8.531l-0.361,0.939
		h25.087V143.148z"/>
	<path fill="#FF560D" d="M111.731,92.902v-0.361h18.941v26.822c0,33.184-48.293,33.184-48.293,0V92.541h18.797v0.361v26.244
		c0,8.241,10.555,8.241,10.555,0V92.902z"/>
	<path fill="#FF560D" d="M187.282,143.148h-22.556l-13.013-19.954v19.954h-18.797V92.541h18.797v19.23l11.351-19.303h22.484
		l-15.833,25.376L187.282,143.148z"/>
	<path fill="#FF560D" d="M187.646,143.148c0-16.845,0-33.763,0-50.607h18.941c0,16.845,0,33.763,0,50.607H187.646z"/>
</g>
<polygon fill="#9E826C" points="330.862,179.284 330.862,173.569 325.146,173.569 325.146,167.854 325.146,162.139 319.431,162.139 
	319.431,156.423 313.716,156.423 313.716,162.139 308,162.139 302.285,162.139 296.569,162.139 296.569,156.423 290.854,156.423 
	290.854,162.139 285.139,162.139 285.139,167.854 285.139,173.569 290.854,173.569 290.854,179.284 290.854,185 290.854,190.715 
	296.569,190.715 296.569,185 302.285,185 308,185 308,190.715 313.716,190.715 313.716,196.431 319.431,196.431 319.431,190.715 
	319.431,185 319.431,179.284 325.146,179.284 325.146,185 330.862,185 336.577,185 336.577,179.284 "/>
<polygon fill="#9E826C" points="313.716,196.431 308,196.431 308,202.146 302.285,202.146 296.569,202.146 296.569,196.431 
	290.854,196.431 290.854,202.146 290.854,207.861 290.854,213.577 290.854,219.292 290.854,225.008 290.854,230.723 
	296.569,230.723 296.569,225.008 296.569,219.292 296.569,213.577 302.285,213.577 302.285,207.861 308,207.861 308,213.577 
	313.716,213.577 313.716,219.292 313.716,225.008 313.716,230.723 313.716,236.438 319.431,236.438 319.431,230.723 
	319.431,225.008 319.431,219.292 319.431,213.577 319.431,207.861 319.431,202.146 319.431,196.431 "/>
<polygon fill="#816A58" points="313.716,196.431 308,196.431 308,202.146 302.285,202.146 296.569,202.146 296.569,196.431 
	290.854,196.431 290.854,202.146 290.854,207.861 290.854,213.577 290.854,219.292 290.854,225.008 290.854,230.723 
	290.854,236.438 296.569,236.438 296.569,230.723 296.569,225.008 296.569,219.292 296.569,213.577 302.285,213.577 
	302.285,207.861 308,207.861 308,213.577 313.716,213.577 313.716,219.292 313.716,225.008 313.716,230.723 319.431,230.723 
	319.431,225.008 319.431,219.292 319.431,213.577 319.431,207.861 319.431,202.146 319.431,196.431 "/>
<polygon fill="#3F4F53" points="313.716,196.431 308,196.431 308,202.146 302.285,202.146 296.569,202.146 296.569,196.431 
	290.854,196.431 290.854,202.146 290.854,207.861 290.854,213.577 290.854,219.292 290.854,225.008 290.854,230.723 
	296.569,230.723 296.569,225.008 296.569,219.292 296.569,213.577 302.285,213.577 302.285,207.861 308,207.861 308,213.577 
	313.716,213.577 313.716,219.292 313.716,225.008 313.716,230.723 319.431,230.723 319.431,225.008 319.431,219.292 
	319.431,213.577 319.431,207.861 319.431,202.146 319.431,196.431 "/>
<polygon fill="#816A58" points="308,150.707 302.285,150.707 296.569,150.707 296.569,156.423 296.569,162.139 302.285,162.139 
	308,162.139 313.716,162.139 313.716,156.423 313.716,150.707 "/>
<polygon fill="#9E826C" points="319.431,139.276 319.431,133.562 319.431,127.846 313.716,127.846 313.716,133.562 308,133.562 
	308,127.846 313.716,127.846 313.716,122.131 308,122.131 302.285,122.131 296.569,122.131 296.569,127.846 296.569,133.562 
	290.854,133.562 290.854,139.276 290.854,144.992 290.854,150.707 296.569,150.707 302.285,150.707 308,150.707 313.716,150.707 
	319.431,150.707 319.431,144.992 325.146,144.992 325.146,139.276 "/>
<polygon fill="#781910" points="308,190.715 308,185 302.285,185 296.569,185 296.569,190.715 290.854,190.715 290.854,196.431 
	296.569,196.431 296.569,202.146 302.285,202.146 308,202.146 308,196.431 313.716,196.431 313.716,190.715 "/>
<polygon fill="#9E826C" points="330.862,179.284 330.862,173.569 325.146,173.569 325.146,167.854 325.146,162.139 319.431,162.139 
	319.431,156.423 313.716,156.423 313.716,162.139 308,162.139 302.285,162.139 296.569,162.139 296.569,156.423 290.854,156.423 
	290.854,162.139 285.139,162.139 285.139,167.854 285.139,173.569 290.854,173.569 290.854,179.284 290.854,185 290.854,190.715 
	296.569,190.715 296.569,185 302.285,185 308,185 308,190.715 313.716,190.715 313.716,196.431 319.431,196.431 319.431,190.715 
	319.431,185 319.431,179.284 325.146,179.284 325.146,185 330.862,185 330.862,190.715 330.862,196.431 330.862,202.146 
	336.577,202.146 336.577,196.431 336.577,190.715 336.577,185 336.577,179.284 "/>
<polygon fill="#816A58" points="273.708,179.284 273.708,185 273.708,190.715 273.708,196.431 279.423,196.431 279.423,190.715 
	279.423,185 279.423,179.284 "/>
<g>
	<g id="XMLID_1_">
		<g>
			<rect x="308" y="127.846" fill="#FBD575" width="5.716" height="5.716"/>
			<polygon fill="#460A05" points="302.285,185 302.285,190.715 296.569,190.715 296.569,196.431 296.569,202.146 302.285,202.146 
				308,202.146 308,196.431 308,190.715 308,185 			"/>
			<polygon fill="#C06035" points="296.569,127.846 296.569,133.562 296.569,139.276 302.285,139.276 302.285,133.562 
				302.285,127.846 			"/>
			<g>
				<polygon fill="#1C1C1C" points="313.716,196.431 308,196.431 308,202.146 313.716,202.146 319.431,202.146 319.431,196.431 				
					"/>
				<polygon fill="#1C1C1C" points="296.569,202.146 296.569,207.861 302.285,207.861 308,207.861 308,202.146 302.285,202.146 				
					"/>
				<rect x="290.854" y="196.431" fill="#1C1C1C" width="5.715" height="5.716"/>
			</g>
			<polygon fill="#5F5253" points="308,144.992 308,139.276 302.285,139.276 296.569,139.276 290.854,139.276 290.854,144.992 
				296.569,144.992 296.569,150.707 302.285,150.707 308,150.707 313.716,150.707 313.716,144.992 			"/>
			<polygon fill="#9E826C" points="302.285,150.707 296.569,150.707 296.569,156.423 302.285,156.423 308,156.423 313.716,156.423 
				313.716,150.707 308,150.707 			"/>
			<rect x="290.854" y="127.846" fill="#FBD575" width="5.715" height="5.716"/>
			<g>
				<polygon fill="#3F3E31" points="319.431,122.131 319.431,116.415 313.716,116.415 308,116.415 302.285,116.415 296.569,116.415 
					296.569,122.131 302.285,122.131 308,122.131 313.716,122.131 313.716,127.846 319.431,127.846 319.431,133.562 
					319.431,139.276 325.146,139.276 325.146,133.562 325.146,127.846 325.146,122.131 				"/>
				<rect x="290.854" y="122.131" fill="#3F3E31" width="5.715" height="5.715"/>
			</g>
			<polygon fill="#C06035" points="319.431,162.139 319.431,156.423 313.716,156.423 313.716,162.139 308,162.139 302.285,162.139 
				296.569,162.139 296.569,156.423 290.854,156.423 290.854,162.139 285.139,162.139 285.139,167.854 285.139,173.569 
				290.854,173.569 290.854,179.284 290.854,185 296.569,185 296.569,179.284 302.285,179.284 308,179.284 308,185 313.716,185 
				313.716,190.715 319.431,190.715 319.431,185 319.431,179.284 319.431,173.569 325.146,173.569 325.146,167.854 325.146,162.139 
							"/>
			<g>
				<polygon fill="#9A3F36" points="330.862,185 330.862,190.715 330.862,196.431 330.862,202.146 336.577,202.146 336.577,196.431 
					336.577,190.715 336.577,185 				"/>
				<polygon fill="#9A3F36" points="273.708,190.715 273.708,196.431 279.423,196.431 279.423,190.715 279.423,185 273.708,185 				
					"/>
			</g>
			<rect x="279.423" y="173.569" fill="#816A58" width="5.716" height="5.715"/>
		</g>
		<g>
		</g>
	</g>
</g>
</svg>
